<svg width="17" height="27" viewBox="0 0 17 27" fill="none" xmlns="http://www.w3.org/2000/svg">
<path d="M3.92366 1.63391e-05C2.59264 -0.00209708 1.26924 0.200825 0 0.601644C2.65555 1.43618 4.97558 3.09621 6.62261 5.34025C8.26963 7.58429 9.15774 10.2953 9.15774 13.0789C9.15774 15.8625 8.26963 18.5735 6.62261 20.8175C4.97558 23.0616 2.65555 24.7216 0 25.5561C1.79842 26.1213 3.69777 26.291 5.56791 26.0537C7.43804 25.8163 9.23477 25.1775 10.835 24.1809C12.4352 23.1844 13.8011 21.8537 14.839 20.2801C15.877 18.7064 16.5624 16.9269 16.8485 15.0636C17.1346 13.2003 17.0145 11.2972 16.4964 9.48465C15.9784 7.67209 15.0746 5.99295 13.8471 4.56226C12.6195 3.13158 11.0972 1.98317 9.38438 1.19571C7.67158 0.408263 5.8088 0.000381029 3.92366 1.63391e-05Z" fill="#222222" fill-opacity="0.8"/>
</svg>
