<svg width="30" height="30" viewBox="0 0 30 30" fill="none" xmlns="http://www.w3.org/2000/svg">
<path d="M3.47727 24.6682L5.4 26.5909L7.85455 24.15L5.91818 22.2136M15 6.81818C10.4864 6.81818 6.81818 10.4864 6.81818 15C6.81818 19.5136 10.4864 23.1818 15 23.1818C19.5136 23.1818 23.1818 19.5136 23.1818 15C23.1818 10.4727 19.5136 6.81818 15 6.81818ZM25.9091 16.3636H30V13.6364H25.9091M22.1455 24.15L24.6 26.5909L26.5227 24.6682L24.0818 22.2136M26.5227 5.45455L24.6 3.54545L22.1455 5.98636L24.0818 7.92273M16.3636 0H13.6364V4.09091H16.3636M7.85455 5.98636L5.4 3.54545L3.47727 5.45455L5.91818 7.92273L7.85455 5.98636ZM0 16.3636H4.09091V13.6364H0M16.3636 25.9091H13.6364V30H16.3636" fill="#dbdbdb"/>
</svg>
