<svg width="24" height="24" viewBox="0 0 24 24" fill="none" xmlns="http://www.w3.org/2000/svg">
<path d="M21.543 5.97474C21.5576 6.23512 21.5576 6.4955 21.5576 6.75829C21.5576 14.7654 16.6045 24 7.54759 24V23.9952C4.87215 24 2.25229 23.0569 0 21.2786C0.389031 21.3362 0.780012 21.365 1.17197 21.3662C3.38915 21.3686 5.54296 20.453 7.28726 18.7671C5.18026 18.7179 3.3326 17.0272 2.68714 14.559C3.42523 14.7342 4.18574 14.6982 4.91018 14.4546C2.61304 13.8834 0.96039 11.3996 0.96039 8.51498C0.96039 8.48858 0.96039 8.46338 0.96039 8.43818C1.64485 8.90735 2.41121 9.16774 3.19512 9.19653C1.03157 7.41705 0.364656 3.87487 1.67118 1.10545C4.17111 4.89121 7.8596 7.19266 11.8191 7.43625C11.4223 5.33158 11.9644 3.12612 13.2436 1.64661C15.2268 -0.647644 18.3459 -0.530052 20.2101 1.90939C21.3129 1.64181 22.3698 1.14384 23.337 0.438287C22.9694 1.841 22.2001 3.03252 21.1725 3.78968C22.1484 3.64808 23.102 3.3265 24 2.83574C23.3389 4.05486 22.5063 5.11679 21.543 5.97474Z" fill="#1D9BF0"/>
</svg>
